<?xml version="1.0" standalone="no"?>
<!DOCTYPE svg PUBLIC "-//W3C//DTD SVG 20010904//EN"
 "http://www.w3.org/TR/2001/REC-SVG-20010904/DTD/svg10.dtd">
<svg version="1.0" xmlns="http://www.w3.org/2000/svg"
 width="260.000000pt" height="137.000000pt" viewBox="0 0 260.000000 137.000000"
 preserveAspectRatio="xMidYMid meet">

<g transform="translate(0.000000,137.000000) scale(0.100000,-0.100000)"
fill="#000000" stroke="none">
<path d="M647 1363 c359 -2 947 -2 1305 0 359 1 66 2 -652 2 -718 0 -1011 -1
-653 -2z"/>
<path d="M1729 1083 c-12 -26 -36 -86 -54 -133 -99 -255 -168 -427 -185 -461
-21 -41 -46 -59 -80 -59 -12 0 -19 -4 -16 -8 4 -6 208 -8 226 -1 3 1 -8 4 -25
8 -41 9 -42 37 -2 141 l32 85 107 3 c97 2 108 1 117 -17 24 -43 73 -192 68
-205 -4 -10 14 -15 76 -20 112 -8 137 -8 137 4 0 6 -8 10 -18 10 -26 0 -60 27
-79 63 -10 18 -71 167 -138 331 -66 165 -126 301 -132 304 -8 2 -22 -17 -34
-45z m55 -260 c20 -56 36 -107 36 -113 0 -13 -156 -14 -165 -1 -4 8 33 122 70
214 11 27 21 12 59 -100z"/>
<path d="M960 1108 c0 -4 11 -8 25 -8 15 0 31 -9 40 -24 14 -21 16 -64 13
-319 -3 -310 -6 -327 -49 -327 -11 0 -19 -3 -19 -7 0 -5 61 -8 135 -8 74 0
135 3 135 8 0 4 -10 7 -23 7 -13 0 -32 6 -43 14 -18 14 -19 29 -19 323 l0 308
43 -1 c46 -1 82 -22 116 -67 24 -33 33 -125 16 -167 -15 -37 -74 -90 -100 -90
-10 0 -22 -4 -25 -10 -12 -20 72 -10 122 15 152 76 160 289 14 347 -31 12
-381 18 -381 6z"/>
<path d="M2174 1108 c-3 -4 6 -8 20 -8 15 0 30 -8 36 -19 6 -12 10 -130 10
-313 0 -250 -2 -297 -16 -316 -8 -12 -24 -22 -35 -22 -10 0 -19 -3 -19 -7 0
-10 267 -10 276 0 4 4 -6 7 -22 7 -17 0 -39 6 -50 14 -18 14 -19 29 -19 319 0
321 2 337 46 337 11 0 19 4 19 8 0 11 -239 11 -246 0z"/>
<path d="M529 1098 c0 -7 -2 -23 -5 -35 -4 -26 -1 -27 29 -12 41 21 59 42 45
51 -20 12 -68 9 -69 -4z"/>
<path d="M607 1052 c-39 -40 -172 -117 -237 -136 -30 -9 -98 -23 -150 -32 -52
-8 -98 -21 -102 -27 -4 -7 -8 -42 -8 -79 l0 -68 29 0 c79 0 350 90 448 149 37
22 46 34 58 76 25 89 29 126 14 136 -20 13 -23 12 -52 -19z"/>
<path d="M213 1012 c-21 -13 -73 -84 -73 -100 0 -11 9 -13 47 -7 26 4 65 14
86 22 34 14 37 17 21 26 -31 16 -64 49 -58 58 6 11 -7 11 -23 1z"/>
<path d="M525 805 c-92 -44 -200 -80 -305 -101 -47 -10 -89 -21 -94 -25 -4 -4
5 -34 21 -66 l29 -58 44 3 c60 5 223 47 269 69 29 14 43 33 73 93 41 83 54
120 41 119 -4 0 -39 -16 -78 -34z"/>
<path d="M458 595 c-3 -4 -58 -19 -123 -35 -65 -16 -120 -32 -124 -35 -3 -4 5
-15 19 -26 86 -68 127 -63 204 23 30 34 53 66 50 70 -6 9 -18 10 -26 3z"/>
<path d="M208 338 c17 -17 15 -49 -4 -76 -8 -12 -10 -22 -5 -22 18 0 51 39 51
59 0 21 -25 51 -43 51 -8 0 -7 -4 1 -12z"/>
<path d="M497 328 c-8 -13 -20 -48 -26 -78 -24 -117 -30 -132 -52 -125 -10 4
-19 2 -19 -4 0 -6 12 -14 26 -17 36 -9 52 11 70 87 8 35 17 71 21 79 4 8 7 20
8 25 1 19 16 35 27 29 6 -4 9 -1 6 7 -8 24 -45 22 -61 -3z"/>
<path d="M112 324 c-22 -15 -31 -54 -12 -54 6 0 10 7 10 15 0 8 9 24 20 35 24
24 14 26 -18 4z"/>
<path d="M1174 329 c-10 -17 13 -36 27 -22 12 12 4 33 -11 33 -5 0 -12 -5 -16
-11z"/>
<path d="M1600 326 c0 -21 21 -31 30 -15 5 7 6 17 4 21 -9 14 -34 9 -34 -6z"/>
<path d="M2114 329 c-10 -17 13 -36 27 -22 12 12 4 33 -11 33 -5 0 -12 -5 -16
-11z"/>
<path d="M162 321 c-14 -8 -42 -101 -42 -138 0 -13 6 -23 14 -23 15 0 26 21
26 51 0 10 5 19 11 19 6 0 9 6 6 14 -3 8 -2 29 3 45 9 33 2 45 -18 32z"/>
<path d="M783 322 c-6 -4 -18 -36 -27 -72 -12 -54 -13 -67 -1 -79 18 -19 61
-5 44 15 -7 8 -9 27 -5 46 20 100 19 109 -11 90z"/>
<path d="M1816 308 c-9 -12 -16 -32 -16 -45 0 -12 -5 -34 -10 -49 -13 -34 7
-60 39 -49 17 5 19 9 9 25 -9 14 -9 28 0 58 22 74 10 107 -22 60z"/>
<path d="M270 270 c-27 -27 -28 -96 -1 -105 10 -3 26 -2 36 1 17 7 16 8 -3 15
-18 7 -21 14 -16 41 4 18 13 38 20 44 13 11 9 24 -8 24 -4 0 -17 -9 -28 -20z"/>
<path d="M368 261 c-5 -14 -15 -37 -22 -51 -10 -21 -10 -28 0 -38 23 -21 31
-14 45 41 12 43 18 52 36 52 40 0 29 19 -10 21 -33 1 -40 -3 -49 -25z"/>
<path d="M567 278 c-21 -17 -39 -66 -32 -89 8 -23 39 -33 62 -20 16 9 16 10 1
11 -25 0 -33 21 -14 36 13 9 14 13 4 17 -10 3 -11 8 0 26 20 34 11 42 -21 19z"/>
<path d="M670 272 c-11 -10 -24 -31 -29 -49 -12 -40 14 -69 54 -59 30 8 34 26
5 26 -15 0 -20 7 -20 28 0 34 10 49 35 54 19 4 19 4 -3 10 -14 4 -30 0 -42
-10z"/>
<path d="M967 284 c-3 -3 -3 -12 0 -20 9 -23 -16 -84 -33 -77 -18 7 -18 30 0
66 12 21 12 27 2 27 -35 0 -64 -75 -42 -105 11 -16 18 -17 38 -8 15 7 30 7 40
2 24 -13 52 -1 38 17 -7 8 -9 30 -5 58 7 41 5 46 -12 46 -11 0 -22 -3 -26 -6z"/>
<path d="M1081 281 c-11 -7 -11 -15 0 -44 11 -32 11 -39 -6 -57 -18 -19 -18
-20 2 -20 10 0 28 6 39 14 17 13 21 12 37 -1 13 -13 22 -14 40 -6 14 7 30 7
39 2 9 -5 24 -6 33 -3 14 6 14 8 1 23 -12 13 -12 22 -1 54 10 31 10 37 -1 37
-16 0 -39 -35 -48 -73 -5 -23 -10 -26 -20 -18 -11 9 -11 21 -4 52 6 22 8 42 5
46 -10 10 -37 -6 -37 -21 0 -8 -5 -27 -11 -43 l-11 -28 -14 40 c-18 48 -25 57
-43 46z"/>
<path d="M1307 283 c-3 -4 -8 -31 -12 -60 -7 -57 -2 -62 64 -59 33 1 35 4 47
49 14 55 18 62 33 53 6 -4 8 -24 5 -50 -5 -34 -3 -44 10 -49 26 -10 49 3 35
19 -7 8 -9 28 -5 48 8 41 -5 52 -59 51 -39 0 -40 -1 -51 -45 -7 -30 -17 -46
-28 -48 -15 -3 -17 1 -11 30 5 18 8 40 9 48 1 15 -29 26 -37 13z"/>
<path d="M1584 276 c-3 -8 -6 -36 -7 -63 l-2 -48 49 0 50 0 11 50 c7 33 15 50
25 50 12 0 14 -10 12 -46 -4 -51 6 -64 39 -54 16 5 18 10 8 21 -7 8 -9 27 -5
48 8 41 -5 52 -58 51 -38 0 -40 -1 -55 -50 -20 -61 -37 -57 -33 8 3 38 0 47
-13 47 -8 0 -18 -6 -21 -14z"/>
<path d="M1898 279 c-14 -8 -38 -65 -38 -91 0 -14 41 -29 63 -22 l22 7 -24 8
c-15 6 -21 14 -17 25 3 9 6 25 6 36 0 12 8 22 21 25 16 4 17 8 7 14 -16 11
-19 11 -40 -2z"/>
<path d="M1975 233 c-12 -40 -13 -59 -6 -66 16 -16 29 1 44 54 10 35 18 44 35
44 37 0 19 19 -20 21 -37 2 -37 2 -53 -53z"/>
<path d="M2102 278 c-5 -7 -13 -34 -17 -59 -7 -49 6 -66 40 -53 17 7 20 24 4
24 -8 0 -9 12 -4 38 4 20 7 41 8 46 3 14 -19 17 -31 4z"/>
<path d="M2203 279 c-23 -8 -37 -29 -46 -70 -5 -20 -2 -28 17 -38 33 -18 61
-6 81 35 26 56 1 93 -52 73z m37 -44 c0 -23 -6 -38 -16 -42 -25 -9 -35 10 -23
45 15 44 39 42 39 -3z"/>
<path d="M2292 266 c-6 -11 -12 -39 -14 -61 -4 -60 23 -53 43 10 12 40 20 50
37 50 37 0 19 19 -19 21 -29 2 -39 -3 -47 -20z"/>
<path d="M616 267 c3 -10 9 -15 12 -12 3 3 0 11 -7 18 -10 9 -11 8 -5 -6z"/>
<path d="M2410 273 c0 -4 5 -21 12 -39 10 -29 9 -36 -7 -54 -18 -20 -18 -20 3
-20 12 0 31 9 41 19 19 19 19 22 4 60 -11 27 -22 41 -35 41 -10 0 -18 -3 -18
-7z"/>
<path d="M2381 216 c-20 -24 -9 -39 14 -22 15 11 17 18 9 26 -8 8 -14 7 -23
-4z"/>
<path d="M1034 205 c-10 -24 6 -38 22 -18 7 10 14 21 14 26 0 13 -31 7 -36 -8z"/>
</g>
</svg>
